<svg xmlns="http://www.w3.org/2000/svg" width="202" height="39" fill="none">
  <path fill="#647F3A"
    d="M26.859 24.532c-.399.043-.594.334-.79.62a.827.827 0 0 1-.644.431.302.302 0 0 1-.328-.162.563.563 0 0 0-.138-.174.33.33 0 0 0-.57.199c-.02.1-.008.206-.024.307-.015.101-.027.224-.159.198-.067-.013-.126-.108-.173-.176a.581.581 0 0 1-.038-.18.447.447 0 0 1-.57.125c-.125-.048-.173.052-.168.167.006.091.028.182.034.273a.236.236 0 0 1-.203.274c-.308.065-.615.133-.924.193a.146.146 0 0 1-.108-.058.435.435 0 0 1-.053-.125c-.049-.122-.046-.294-.249-.268a.455.455 0 0 0-.451.412 3.664 3.664 0 0 1-.048.564c-.044.226-.154.253-.317.093-.064-.063-.108-.15-.176-.209a.765.765 0 0 0-.196-.09.76.76 0 0 0-.055.209c0 .115.079.254.037.34-.114.21-.25.41-.404.593-.058.073-.137.046-.148-.066a1.799 1.799 0 0 0-.038-.289.737.737 0 0 0-.122-.279c-.08-.094-.161-.162-.097-.306.034-.075-.015-.148-.115-.14a.453.453 0 0 1-.445-.266c-.066-.113-.145-.119-.227-.008-.184.25-.235.256-.484.046a.978.978 0 0 1-.468.525c-.225.137-.32.124-.502-.08-.157-.176-.158-.176-.342-.024-.093.077-.189.151-.277.231a.5.5 0 0 0-.046.759c.07.08.125.174.158.276.035.131-.048.196-.178.157a2.7 2.7 0 0 0-.275-.097.534.534 0 0 0-.276.012c-.084.033-.134.033-.167-.045a.67.67 0 0 0-.643-.38 1.028 1.028 0 0 1-.318-.068.282.282 0 0 1-.138-.173c-.009-.042.066-.105.105-.155.04-.051.091-.075.104-.122.075-.26.13-.297.389-.24l.068.013c-.02-.203-.086-.253-.273-.202-.099.027-.194.065-.337.115l.074-.294c.051-.158.088-.32.111-.484a1.068 1.068 0 0 0-.091-.335l-.074-.006a1.09 1.09 0 0 0-.099.268.557.557 0 0 1-.541.595c-.462.067-.476.085-.313.53a.587.587 0 0 1-.029.468c-.17.37-.346.737-.516 1.106a.324.324 0 0 1-.028.062.635.635 0 0 0-.086.746c.071.135-.009.261-.11.37-.26.283-.516.568-.77.856a.162.162 0 0 1-.278-.024.44.44 0 0 1-.033-.23c.02-.236-.016-.269-.245-.186-.086.031-.17.072-.252.11-.116.05-.174.014-.197-.105a.84.84 0 0 0-.04-.201c-.02-.047-.076-.108-.115-.107a.187.187 0 0 0-.145.092c-.065.183-.11.373-.163.56-.069.235-.13.472-.213.702a.24.24 0 0 1-.181.115c-.038 0-.089-.09-.123-.146a2.693 2.693 0 0 0-.182-.318c-.078-.092-.153-.045-.193.058a.322.322 0 0 0-.016.067c-.063.432-.35.404-.629.237a1.15 1.15 0 0 0-.183-.126.22.22 0 0 0-.185.013 1.4 1.4 0 0 0-.318.378.962.962 0 0 0-.027.41c.02.139.03.278.029.418-.01.069-.11.151-.184.173-.045.014-.133-.064-.182-.115a1.046 1.046 0 0 1-.263-.812.28.28 0 0 0-.073-.21c-.033-.027-.14.01-.199.044a.231.231 0 0 1-.324-.037.204.204 0 0 0-.163-.053 2.242 2.242 0 0 0-1.552 1.35.306.306 0 0 0 .052.235c.067.105.168.188.244.289a.289.289 0 0 1-.166.48c-.09.02-.18.035-.271.046a.494.494 0 0 0-.477.658.924.924 0 0 1-.553 1.008.793.793 0 0 0-.491.494c-.13.374-.241.754-.36 1.13-.044.167-.097.33-.16.491a.27.27 0 0 1-.378.17 3.02 3.02 0 0 1-.462-.184.573.573 0 0 1-.333-.559 1.288 1.288 0 0 0-.515-1.062 1.657 1.657 0 0 1-.657-1.293C1.351 32.48.95 29.87.734 27.237.525 24.652.26 22.072.02 19.49a.713.713 0 0 1 .635-.874.312.312 0 0 1 .36.199c.047.115.097.23.14.35.04.102.08.196.217.173.128-.022.136-.119.144-.22.017-.24.03-.481.06-.72.042-.326.207-.421.52-.311.087.03.164.088.251.11.067.018.188.026.207-.006a.335.335 0 0 0 .024-.244c-.025-.077-.104-.135-.154-.204a5.697 5.697 0 0 1-.186-.27.435.435 0 0 1 .046-.648l.395-.454c.185-.23.44-.393.728-.462a.762.762 0 0 0 .541-.857.725.725 0 0 1 .438-.778.542.542 0 0 0 .333-.536.479.479 0 0 0-.078-.258.9.9 0 0 1-.048-.991c.033-.085.083-.165.12-.248a.414.414 0 0 0-.108-.529.26.26 0 0 1-.086-.32c.163-.608.49-1.16.943-1.596.282-.277.444-.653.451-1.048.055-.398.116-.796.169-1.194.046-.308.163-.601.342-.856C7.663 4.84 8.9 2.982 10.135 1.123a.693.693 0 0 1 .907-.308.676.676 0 0 1 .552.746c0 .183.004.366.01.549a.779.779 0 0 0 .277.577c.152.14.32.26.501.359a.462.462 0 0 0 .357.004 3.97 3.97 0 0 1 1.424-.375.414.414 0 0 0 .245-.133.724.724 0 0 1 .672-.226c.058.008.116.024.17.033.3.047.338.028.449-.253a.363.363 0 0 1 .361-.242 1.79 1.79 0 0 1 1.4.506l1.605 1.609c.17.173.329.355.51.513a1.05 1.05 0 0 1 .357.738c.115 1.262.236 2.524.362 3.786.17 1.742.342 3.484.516 5.226v.017c-.044.268-.053.54-.027.811.037.266.026.537-.034.798-.019.113-.024.228-.016.342a.439.439 0 0 0 .524.436.288.288 0 0 1 .333.165 1.023 1.023 0 0 0 .83.485c.221.032.444.063.665.093.165.023.281.087.29.28 0 .096.038.19.05.288a.325.325 0 0 1-.16.354c-.115.065-.122.139-.057.252.096.163.173.337.256.507.112.242.135.516.067.773a.828.828 0 0 0-.007.417c.073.216.175.422.304.612a.474.474 0 0 0 .732.11.63.63 0 0 1 .835.074c.206.215.393.447.56.693a.405.405 0 0 1 .016.315.455.455 0 0 0 .101.447.85.85 0 0 1 .238.502c0 .267-.116.374-.376.313-.135-.032-.28-.103-.328.107-.046.197.05.32.267.357.046.007.091.015.137.02.513.047.693.197.848.736" />
  <path fill="#5A7334"
    d="M150.935 10.694V7.407a.397.397 0 0 0-.249-.377.389.389 0 0 0-.155-.03h-15.595a.388.388 0 0 0-.287.119.398.398 0 0 0-.118.288v22.908a.41.41 0 0 0 .249.377c.05.02.102.03.156.03h15.595a.398.398 0 0 0 .374-.25.38.38 0 0 0 .03-.157v-3.287a.41.41 0 0 0-.249-.377.398.398 0 0 0-.155-.03h-11.07a.15.15 0 0 1-.126-.042.162.162 0 0 1-.036-.058.156.156 0 0 1-.006-.068v-5.49a.156.156 0 0 1 .006-.068.161.161 0 0 1 .036-.058.15.15 0 0 1 .126-.043h7.257a.398.398 0 0 0 .287-.117.397.397 0 0 0 .118-.289v-3.287a.396.396 0 0 0-.25-.377.398.398 0 0 0-.155-.03h-7.259a.15.15 0 0 1-.126-.042.162.162 0 0 1-.036-.058.156.156 0 0 1-.006-.068v-5.254a.143.143 0 0 1 .007-.068.146.146 0 0 1 .161-.1h11.07a.4.4 0 0 0 .404-.407l.002-.003ZM126.598 7.27l-5.096 7.896c-.067.135-.135.135-.202 0l-5.064-7.896a.53.53 0 0 0-.473-.27h-3.949a.395.395 0 0 0-.287.12.398.398 0 0 0-.118.288v22.906a.416.416 0 0 0 .118.288.4.4 0 0 0 .287.118h3.949a.403.403 0 0 0 .405-.406v-14.91c0-.09.022-.142.067-.153.045-.012.09.017.135.084l3.577 5.625a.533.533 0 0 0 .473.27h1.992a.528.528 0 0 0 .472-.27l3.578-5.625c.045-.067.09-.1.134-.1.045 0 .068.045.068.134v14.945a.41.41 0 0 0 .249.377c.05.02.102.03.156.03h3.949a.398.398 0 0 0 .287-.119.397.397 0 0 0 .118-.288V7.407a.39.39 0 0 0-.118-.288.39.39 0 0 0-.285-.119h-3.949a.53.53 0 0 0-.473.271" />
  <path fill="#3B6B90"
    d="M193.955 30.722h2.432a.387.387 0 0 0 .446-.367l4.988-19.738a.3.3 0 0 0 .037-.166.299.299 0 0 0-.057-.16.37.37 0 0 0-.304-.122l-2.351-.04a.416.416 0 0 0-.446.366l-3.446 15.424c-.027.082-.054.123-.081.123-.026 0-.054-.041-.081-.123l-3.486-15.424a.419.419 0 0 0-.446-.367h-2.354c-.243 0-.365.096-.365.285l.04.163 5.027 19.78a.42.42 0 0 0 .446.366h.001Zm-13.539-2.239a3.254 3.254 0 0 1-2.513-1.058 3.983 3.983 0 0 1-.973-2.808v-8.384a4.063 4.063 0 0 1 .973-2.829 3.233 3.233 0 0 1 2.513-1.077 3.294 3.294 0 0 1 2.533 1.077 4.015 4.015 0 0 1 .994 2.83v8.383a3.937 3.937 0 0 1-.994 2.808 3.326 3.326 0 0 1-2.533 1.058Zm0 2.564c1.945 0 3.5-.57 4.663-1.709 1.162-1.14 1.744-2.645 1.744-4.518v-8.75a6.138 6.138 0 0 0-1.744-4.517c-1.163-1.166-2.718-1.75-4.663-1.751-1.919 0-3.46.584-4.621 1.751-1.162 1.167-1.743 2.673-1.745 4.518v8.75c0 1.871.574 3.377 1.723 4.517 1.149 1.14 2.696 1.709 4.643 1.708v.001Zm-15.931-2.729a3.222 3.222 0 0 1-2.513-1.078 3.997 3.997 0 0 1-.973-2.787v-8.22a4.063 4.063 0 0 1 .973-2.829 3.233 3.233 0 0 1 2.513-1.077 3.122 3.122 0 0 1 2.452 1.077c.66.79 1 1.8.953 2.83v8.22a4.052 4.052 0 0 1-.953 2.788 3.13 3.13 0 0 1-2.452 1.078v-.002Zm3.405-17.782v1.262c0 .081-.02.129-.061.142-.04.014-.088-.02-.142-.1a4.36 4.36 0 0 0-1.763-1.527 5.29 5.29 0 0 0-2.291-.509c-1.702 0-3.047.563-4.033 1.69-.987 1.125-1.48 2.638-1.479 4.537v8.588c0 1.872.493 3.378 1.479 4.518.986 1.14 2.331 1.708 4.033 1.707a5.116 5.116 0 0 0 2.291-.529 4.504 4.504 0 0 0 1.763-1.547c.054-.053.101-.067.142-.04.02.013.036.031.047.053a.15.15 0 0 1 .014.069v1.22c0 2.17-.432 3.777-1.297 4.822s-2.378 1.54-4.541 1.486a.358.358 0 0 0-.405.407v1.75a.402.402 0 0 0 .103.316.4.4 0 0 0 .302.132c3.135.135 5.371-.55 6.709-2.054 1.338-1.504 2.007-3.709 2.007-6.613v-19.78a.353.353 0 0 0-.015-.164.355.355 0 0 0-.226-.228.36.36 0 0 0-.164-.015h-2.068a.358.358 0 0 0-.405.407Zm-13.602 20.12a1.863 1.863 0 0 0 1.695-1.157 1.878 1.878 0 0 0-.383-2.022 1.863 1.863 0 0 0-2.602.039 1.878 1.878 0 0 0-.039 2.613 1.759 1.759 0 0 0 1.329.527ZM106.918 9.925c-1.784 0-3.067 1.031-3.851 3.093a.22.22 0 0 1-.142.082c-.04 0-.061-.041-.061-.123v-2.44a.366.366 0 0 0-.1-.306.356.356 0 0 0-.304-.102h-2.067a.357.357 0 0 0-.406.406v19.78a.364.364 0 0 0 .102.305.354.354 0 0 0 .304.101h2.067a.356.356 0 0 0 .304-.101.358.358 0 0 0 .102-.305v-12.21a6.351 6.351 0 0 1 .932-3.52c.621-.963 1.419-1.471 2.392-1.526.16-.032.323-.046.486-.041.419-.014.835.07 1.216.244.297.082.46 0 .487-.244l.486-2.116a.435.435 0 0 0-.201-.53 3.275 3.275 0 0 0-1.744-.447h-.002Zm-16.689 2.401a3.27 3.27 0 0 1 2.554 1.078 4.064 4.064 0 0 1 .973 2.829v2.728a.144.144 0 0 1-.162.163h-6.65a.142.142 0 0 1-.156-.097.144.144 0 0 1-.006-.066v-2.728a4.115 4.115 0 0 1 .953-2.829 3.173 3.173 0 0 1 2.493-1.078h.001Zm6.363 8.79V16.03c0-1.844-.574-3.343-1.723-4.496-1.148-1.154-2.695-1.73-4.641-1.73-1.92 0-3.453.576-4.601 1.73-1.148 1.153-1.722 2.652-1.723 4.496v8.79c0 1.873.574 3.378 1.723 4.518 1.148 1.14 2.682 1.71 4.6 1.71 1.757 0 3.183-.469 4.277-1.405a5.834 5.834 0 0 0 1.967-3.805.342.342 0 0 0-.082-.326.39.39 0 0 0-.283-.122l-2.027-.081a.452.452 0 0 0-.446.366 3.73 3.73 0 0 1-1.196 2.054 3.25 3.25 0 0 1-2.21.794 3.16 3.16 0 0 1-2.492-1.078 4.051 4.051 0 0 1-.953-2.787v-2.97a.145.145 0 0 1 .097-.157.143.143 0 0 1 .065-.006h9.243a.358.358 0 0 0 .406-.407h-.001Zm-22.447 9.605h2.432a.387.387 0 0 0 .446-.366l4.986-19.738a.308.308 0 0 0-.02-.326.373.373 0 0 0-.304-.122l-2.351-.04a.416.416 0 0 0-.446.366l-3.446 15.424c-.027.081-.054.122-.081.122-.026 0-.054-.04-.081-.122l-3.486-15.424a.42.42 0 0 0-.446-.366h-2.351c-.244 0-.365.094-.365.284l.04.163 5.027 19.78a.419.419 0 0 0 .446.365Zm-13.488-2.238a3.25 3.25 0 0 1-2.513-1.058 3.984 3.984 0 0 1-.973-2.808v-8.384a4.062 4.062 0 0 1 .973-2.829 3.235 3.235 0 0 1 2.513-1.077 3.29 3.29 0 0 1 2.533 1.077 4.014 4.014 0 0 1 .994 2.83v8.383a3.938 3.938 0 0 1-.994 2.808 3.328 3.328 0 0 1-2.533 1.058Zm0 2.564c1.945 0 3.5-.57 4.663-1.709 1.162-1.14 1.744-2.645 1.744-4.518v-8.75a6.136 6.136 0 0 0-1.744-4.517c-1.163-1.166-2.718-1.75-4.663-1.751-1.92 0-3.46.584-4.621 1.751-1.162 1.167-1.744 2.673-1.745 4.517v8.75c0 1.872.574 3.378 1.723 4.518 1.148 1.14 2.696 1.71 4.643 1.708v.001Zm-15.474 0c1.918 0 3.465-.537 4.641-1.608a5.233 5.233 0 0 0 1.764-4.05v-.448a.361.361 0 0 0-.406-.406l-2.067-.041a.357.357 0 0 0-.39.242.36.36 0 0 0-.016.165v.285a3.216 3.216 0 0 1-.993 2.34 3.43 3.43 0 0 1-2.533.998 3.16 3.16 0 0 1-2.493-1.078c-.66-.79-1-1.8-.953-2.829v-8.384a4.116 4.116 0 0 1 .953-2.829 3.174 3.174 0 0 1 2.493-1.077 3.423 3.423 0 0 1 2.533.996 3.206 3.206 0 0 1 .993 2.34v.286a.362.362 0 0 0 .242.392.358.358 0 0 0 .164.014l2.067-.08a.358.358 0 0 0 .405-.408v-.407c.01-1-.265-1.98-.79-2.829a5.72 5.72 0 0 0-2.25-2.054 7.086 7.086 0 0 0-3.364-.775c-1.892 0-3.42.577-4.58 1.73-1.163 1.153-1.744 2.652-1.744 4.497v8.79c0 1.873.574 3.378 1.723 4.518 1.148 1.14 2.682 1.71 4.6 1.71" />
</svg>
