<svg width="20" height="13" viewBox="0 0 20 13" fill="none" xmlns="http://www.w3.org/2000/svg">
<path d="M14.9613 0.986514C15.0918 0.593399 14.8789 0.168916 14.4858 0.0384048C14.0927 -0.0921061 13.6682 0.120777 13.5377 0.513892C13.3898 0.959384 13.2337 1.55385 13.1181 2.02636C12.3819 2.05155 11.6725 2.04441 11.0512 2.00192C10.638 1.97366 10.28 2.28575 10.2518 2.699C10.2235 3.11224 10.5356 3.47016 10.9489 3.49842C11.512 3.53693 12.1391 3.54883 12.7931 3.53567C12.6493 4.30134 12.5518 4.98483 12.4928 5.59951C11.2779 6.24191 10.4318 7.1041 9.9543 8.01188C9.34117 9.17755 9.29372 10.5683 10.1596 11.4547C10.7313 12.0391 11.5679 12.095 12.2889 11.9402C12.6945 11.8532 13.1145 11.6919 13.5292 11.466C13.5352 11.4817 13.5411 11.4972 13.5468 11.5125C13.6917 11.9005 14.1237 12.0977 14.5118 11.9529C14.8998 11.808 15.097 11.376 14.9522 10.9879C14.8956 10.8363 14.8385 10.6966 14.7818 10.5641C15.8051 9.62831 16.6965 8.25569 17.0671 6.51735C17.7047 6.82944 18.1363 7.35288 18.345 7.91662C18.5723 8.53025 18.5579 9.22896 18.2479 9.86934C17.9403 10.5047 17.3154 11.1338 16.2327 11.5502C15.8461 11.6988 15.6532 12.1327 15.8018 12.5194C15.9505 12.906 16.3844 13.0989 16.771 12.9502C18.1576 12.4171 19.1017 11.548 19.598 10.523C20.0918 9.50307 20.116 8.37951 19.7517 7.39569C19.3384 6.27975 18.4512 5.38531 17.2474 4.97202C17.2492 4.89857 17.2501 4.82462 17.2501 4.75018C17.2501 4.33597 16.9143 4.00018 16.5001 4.00018C16.0948 4.00018 15.7646 4.32169 15.7506 4.72358C15.2257 4.71943 14.6655 4.79437 14.0784 4.9614C14.1416 4.50583 14.2261 4.00765 14.3354 3.46137C15.5197 3.37197 16.6989 3.20879 17.6716 2.98029C18.0748 2.88556 18.3249 2.48188 18.2302 2.07865C18.1354 1.67541 17.7317 1.42532 17.3285 1.52005C16.5605 1.70047 15.6387 1.83792 14.6905 1.9262C14.7765 1.59639 14.8719 1.25572 14.9613 0.986514ZM11.2819 8.71016C11.5082 8.27991 11.8817 7.82376 12.4278 7.41045C12.4449 7.90147 12.4933 8.33567 12.5646 8.72754C12.6589 9.24617 12.8005 9.70131 12.9508 10.0998C12.6455 10.2711 12.3192 10.3996 11.9741 10.4736C11.4893 10.5777 11.2868 10.462 11.2317 10.4057C10.9929 10.1612 10.8383 9.55352 11.2819 8.71016ZM15.5959 6.22264C15.3869 7.18934 14.8955 8.24474 14.1823 9.07078C14.1295 8.88715 14.0817 8.68627 14.0404 8.45914C13.9513 7.9695 13.9006 7.36725 13.9286 6.59303C14.0381 6.55099 14.1511 6.51064 14.2676 6.47215C14.7491 6.31322 15.1924 6.23528 15.5959 6.22264ZM5.96084 1.53004C3.72117 0.878425 1.95773 1.68117 1.38512 1.99715C1.02245 2.19727 0.890685 2.65349 1.09081 3.01616C1.29093 3.37882 1.74715 3.51059 2.10982 3.31047C2.51469 3.08705 3.84606 2.47728 5.54098 2.97008C6.31403 3.19709 6.63905 3.60925 6.80538 4.02611C6.93783 4.35807 6.97952 4.71701 6.99259 5.06828C6.72336 4.99308 6.41199 4.91829 6.07049 4.85759C4.93793 4.65631 3.38792 4.59496 1.94794 5.28471C0.361691 6.04452 -0.182521 7.601 0.0459052 8.98169C0.270369 10.3384 1.26232 11.6483 2.84609 11.9333C4.2756 12.1906 5.65146 11.6774 6.60343 11.1719C6.74209 11.0983 6.87408 11.0236 6.9985 10.9496V11.2502C6.9985 11.6644 7.33429 12.0002 7.7485 12.0002C8.16271 12.0002 8.4985 11.6644 8.4985 11.2502L8.49852 5.46049C8.4988 5.00637 8.49928 4.22388 8.19857 3.47022C7.86774 2.64108 7.19434 1.89191 5.96246 1.53051L5.96084 1.53004ZM5.80802 6.33445C6.29139 6.42036 6.70564 6.54031 6.9985 6.63875V9.14481C6.96621 9.16929 6.93112 9.19548 6.89337 9.2231C6.6526 9.39927 6.3091 9.62984 5.89995 9.8471C5.05912 10.2936 4.0502 10.6259 3.11177 10.457C2.26739 10.3051 1.66714 9.59123 1.52579 8.73686C1.3884 7.90644 1.70477 7.06439 2.59594 6.63752C3.63338 6.14058 4.82165 6.15915 5.80802 6.33445Z" fill="#41454A"/>
</svg>
